<svg height="2126" width="720" xmlns="http://www.w3.org/2000/svg">
<rect height="2126" fill="#555" width="720"></rect>
<text fill="#7f7" font-family="Courier New" font-size="12" xml:space="preserve">
<tspan x="10" y="26">81 megabytes installed</tspan>
<tspan x="10" y="42"></tspan>
<tspan x="10" y="58">node_modules</tspan>
<tspan x="10" y="74">└─┬ grunt-criticalcss@2.1.0 </tspan>
<tspan x="10" y="90">  └─┬ criticalcss@2.1.0 </tspan>
<tspan x="10" y="106">    ├─┬ css@2.2.1 </tspan>
<tspan x="10" y="122">    │ ├── inherits@2.0.3 </tspan>
<tspan x="10" y="138">    │ ├─┬ source-map@0.1.43 </tspan>
<tspan x="10" y="154">    │ │ └── amdefine@1.0.1 </tspan>
<tspan x="10" y="170">    │ ├─┬ source-map-resolve@0.3.1 </tspan>
<tspan x="10" y="186">    │ │ ├── atob@1.1.3 </tspan>
<tspan x="10" y="202">    │ │ ├── resolve-url@0.2.1 </tspan>
<tspan x="10" y="218">    │ │ └── source-map-url@0.3.0 </tspan>
<tspan x="10" y="234">    │ └── urix@0.1.0 </tspan>
<tspan x="10" y="250">    ├── lodash@4.17.4 </tspan>
<tspan x="10" y="266">    ├─┬ phantomjs-prebuilt@2.1.14 </tspan>
<tspan x="10" y="282">    │ ├── es6-promise@4.0.5 </tspan>
<tspan x="10" y="298">    │ ├─┬ extract-zip@1.5.0 </tspan>
<tspan x="10" y="314">    │ │ ├─┬ concat-stream@1.5.0 </tspan>
<tspan x="10" y="330">    │ │ │ ├─┬ readable-stream@2.0.6 </tspan>
<tspan x="10" y="346">    │ │ │ │ ├── core-util-is@1.0.2 </tspan>
<tspan x="10" y="362">    │ │ │ │ ├── isarray@1.0.0 </tspan>
<tspan x="10" y="378">    │ │ │ │ ├── process-nextick-args@1.0.7 </tspan>
<tspan x="10" y="394">    │ │ │ │ ├── string_decoder@0.10.31 </tspan>
<tspan x="10" y="410">    │ │ │ │ └── util-deprecate@1.0.2 </tspan>
<tspan x="10" y="426">    │ │ │ └── typedarray@0.0.6 </tspan>
<tspan x="10" y="442">    │ │ ├── debug@0.7.4 </tspan>
<tspan x="10" y="458">    │ │ ├─┬ mkdirp@0.5.0 </tspan>
<tspan x="10" y="474">    │ │ │ └── minimist@0.0.8 </tspan>
<tspan x="10" y="490">    │ │ └─┬ yauzl@2.4.1 </tspan>
<tspan x="10" y="506">    │ │   └─┬ fd-slicer@1.0.1 </tspan>
<tspan x="10" y="522">    │ │     └── pend@1.2.0 </tspan>
<tspan x="10" y="538">    │ ├─┬ fs-extra@1.0.0 </tspan>
<tspan x="10" y="554">    │ │ ├── graceful-fs@4.1.11 </tspan>
<tspan x="10" y="570">    │ │ ├── jsonfile@2.4.0 </tspan>
<tspan x="10" y="586">    │ │ └── klaw@1.3.1 </tspan>
<tspan x="10" y="602">    │ ├─┬ hasha@2.2.0 </tspan>
<tspan x="10" y="618">    │ │ ├── is-stream@1.1.0 </tspan>
<tspan x="10" y="634">    │ │ └─┬ pinkie-promise@2.0.1 </tspan>
<tspan x="10" y="650">    │ │   └── pinkie@2.0.4 </tspan>
<tspan x="10" y="666">    │ ├── kew@0.7.0 </tspan>
<tspan x="10" y="682">    │ ├── progress@1.1.8 </tspan>
<tspan x="10" y="698">    │ ├─┬ request@2.79.0 </tspan>
<tspan x="10" y="714">    │ │ ├── aws-sign2@0.6.0 </tspan>
<tspan x="10" y="730">    │ │ ├── aws4@1.6.0 </tspan>
<tspan x="10" y="746">    │ │ ├── caseless@0.11.0 </tspan>
<tspan x="10" y="762">    │ │ ├─┬ combined-stream@1.0.5 </tspan>
<tspan x="10" y="778">    │ │ │ └── delayed-stream@1.0.0 </tspan>
<tspan x="10" y="794">    │ │ ├── extend@3.0.0 </tspan>
<tspan x="10" y="810">    │ │ ├── forever-agent@0.6.1 </tspan>
<tspan x="10" y="826">    │ │ ├─┬ form-data@2.1.4 </tspan>
<tspan x="10" y="842">    │ │ │ └── asynckit@0.4.0 </tspan>
<tspan x="10" y="858">    │ │ ├─┬ har-validator@2.0.6 </tspan>
<tspan x="10" y="874">    │ │ │ ├─┬ commander@2.9.0 </tspan>
<tspan x="10" y="890">    │ │ │ │ └── graceful-readlink@1.0.1 </tspan>
<tspan x="10" y="906">    │ │ │ └─┬ is-my-json-valid@2.16.0 </tspan>
<tspan x="10" y="922">    │ │ │   ├── generate-function@2.0.0 </tspan>
<tspan x="10" y="938">    │ │ │   ├─┬ generate-object-property@1.2.0 </tspan>
<tspan x="10" y="954">    │ │ │   │ └── is-property@1.0.2 </tspan>
<tspan x="10" y="970">    │ │ │   ├── jsonpointer@4.0.1 </tspan>
<tspan x="10" y="986">    │ │ │   └── xtend@4.0.1 </tspan>
<tspan x="10" y="1002">    │ │ ├─┬ hawk@3.1.3 </tspan>
<tspan x="10" y="1018">    │ │ │ ├── boom@2.10.1 </tspan>
<tspan x="10" y="1034">    │ │ │ ├── cryptiles@2.0.5 </tspan>
<tspan x="10" y="1050">    │ │ │ ├── hoek@2.16.3 </tspan>
<tspan x="10" y="1066">    │ │ │ └── sntp@1.0.9 </tspan>
<tspan x="10" y="1082">    │ │ ├─┬ http-signature@1.1.1 </tspan>
<tspan x="10" y="1098">    │ │ │ ├── assert-plus@0.2.0 </tspan>
<tspan x="10" y="1114">    │ │ │ ├─┬ jsprim@1.4.0 </tspan>
<tspan x="10" y="1130">    │ │ │ │ ├── assert-plus@1.0.0 </tspan>
<tspan x="10" y="1146">    │ │ │ │ ├── extsprintf@1.0.2 </tspan>
<tspan x="10" y="1162">    │ │ │ │ ├── json-schema@0.2.3 </tspan>
<tspan x="10" y="1178">    │ │ │ │ └── verror@1.3.6 </tspan>
<tspan x="10" y="1194">    │ │ │ └─┬ sshpk@1.13.0 </tspan>
<tspan x="10" y="1210">    │ │ │   ├── asn1@0.2.3 </tspan>
<tspan x="10" y="1226">    │ │ │   ├── assert-plus@1.0.0 </tspan>
<tspan x="10" y="1242">    │ │ │   ├── bcrypt-pbkdf@1.0.1 </tspan>
<tspan x="10" y="1258">    │ │ │   ├─┬ dashdash@1.14.1 </tspan>
<tspan x="10" y="1274">    │ │ │   │ └── assert-plus@1.0.0 </tspan>
<tspan x="10" y="1290">    │ │ │   ├── ecc-jsbn@0.1.1 </tspan>
<tspan x="10" y="1306">    │ │ │   ├─┬ getpass@0.1.6 </tspan>
<tspan x="10" y="1322">    │ │ │   │ └── assert-plus@1.0.0 </tspan>
<tspan x="10" y="1338">    │ │ │   ├── jodid25519@1.0.2 </tspan>
<tspan x="10" y="1354">    │ │ │   ├── jsbn@0.1.1 </tspan>
<tspan x="10" y="1370">    │ │ │   └── tweetnacl@0.14.5 </tspan>
<tspan x="10" y="1386">    │ │ ├── is-typedarray@1.0.0 </tspan>
<tspan x="10" y="1402">    │ │ ├── isstream@0.1.2 </tspan>
<tspan x="10" y="1418">    │ │ ├── json-stringify-safe@5.0.1 </tspan>
<tspan x="10" y="1434">    │ │ ├─┬ mime-types@2.1.15 </tspan>
<tspan x="10" y="1450">    │ │ │ └── mime-db@1.27.0 </tspan>
<tspan x="10" y="1466">    │ │ ├── oauth-sign@0.8.2 </tspan>
<tspan x="10" y="1482">    │ │ ├── qs@6.3.2 </tspan>
<tspan x="10" y="1498">    │ │ ├── stringstream@0.0.5 </tspan>
<tspan x="10" y="1514">    │ │ ├─┬ tough-cookie@2.3.2 </tspan>
<tspan x="10" y="1530">    │ │ │ └── punycode@1.4.1 </tspan>
<tspan x="10" y="1546">    │ │ ├── tunnel-agent@0.4.3 </tspan>
<tspan x="10" y="1562">    │ │ └── uuid@3.0.1 </tspan>
<tspan x="10" y="1578">    │ ├─┬ request-progress@2.0.1 </tspan>
<tspan x="10" y="1594">    │ │ └── throttleit@1.0.0 </tspan>
<tspan x="10" y="1610">    │ └─┬ which@1.2.14 </tspan>
<tspan x="10" y="1626">    │   └── isexe@2.0.0 </tspan>
<tspan x="10" y="1642">    ├─┬ postcss@5.2.17 </tspan>
<tspan x="10" y="1658">    │ ├─┬ chalk@1.1.3 </tspan>
<tspan x="10" y="1674">    │ │ ├── ansi-styles@2.2.1 </tspan>
<tspan x="10" y="1690">    │ │ ├── escape-string-regexp@1.0.5 </tspan>
<tspan x="10" y="1706">    │ │ ├─┬ has-ansi@2.0.0 </tspan>
<tspan x="10" y="1722">    │ │ │ └── ansi-regex@2.1.1 </tspan>
<tspan x="10" y="1738">    │ │ ├── strip-ansi@3.0.1 </tspan>
<tspan x="10" y="1754">    │ │ └── supports-color@2.0.0 </tspan>
<tspan x="10" y="1770">    │ ├── js-base64@2.1.9 </tspan>
<tspan x="10" y="1786">    │ ├── source-map@0.5.6 </tspan>
<tspan x="10" y="1802">    │ └─┬ supports-color@3.2.3 </tspan>
<tspan x="10" y="1818">    │   └── has-flag@1.0.0 </tspan>
<tspan x="10" y="1834">    ├─┬ postcss-initial@1.5.3 </tspan>
<tspan x="10" y="1850">    │ └─┬ lodash.template@4.4.0 </tspan>
<tspan x="10" y="1866">    │   ├── lodash._reinterpolate@3.0.0 </tspan>
<tspan x="10" y="1882">    │   └── lodash.templatesettings@4.1.0 </tspan>
<tspan x="10" y="1898">    └─┬ yargs@3.32.0 </tspan>
<tspan x="10" y="1914">      ├── camelcase@2.1.1 </tspan>
<tspan x="10" y="1930">      ├─┬ cliui@3.2.0 </tspan>
<tspan x="10" y="1946">      │ └── wrap-ansi@2.1.0 </tspan>
<tspan x="10" y="1962">      ├── decamelize@1.2.0 </tspan>
<tspan x="10" y="1978">      ├─┬ os-locale@1.4.0 </tspan>
<tspan x="10" y="1994">      │ └─┬ lcid@1.0.0 </tspan>
<tspan x="10" y="2010">      │   └── invert-kv@1.0.0 </tspan>
<tspan x="10" y="2026">      ├─┬ string-width@1.0.2 </tspan>
<tspan x="10" y="2042">      │ ├── code-point-at@1.1.0 </tspan>
<tspan x="10" y="2058">      │ └─┬ is-fullwidth-code-point@1.0.0 </tspan>
<tspan x="10" y="2074">      │   └── number-is-nan@1.0.1 </tspan>
<tspan x="10" y="2090">      ├── window-size@0.1.4 </tspan>
<tspan x="10" y="2106">      └── y18n@3.2.1</tspan>
</text>
</svg>
